# xmcd
#
# Track frame offsets: 
#        150
#        17887
#        47565
#        92086
#        120231
#        140386
#        162675
#        179468
#        197025
#
# Disc length: 2826 seconds
#
# Revision: 0
# Processed by: cddbd v1.5.2PL0 Copyright (c) Steve Scherf et al.
# Submitted via: ExactAudioCopy v0.99pb4
#
DISCID=760b0809
DTITLE=Quinn Harris - All In The Soul
DYEAR=1900
DGENRE=Soul
TTITLE0=Stop! Telling Me Lies
TTITLE1=Freedom Flight
TTITLE2=We Got To Get Together
TTITLE3=All In The Soul
TTITLE4=This Summer
TTITLE5=Never To Hard To Bear
TTITLE6=Doctor Of Love
TTITLE7=Stop! Telling Me Lies [7 Inch Version]
TTITLE8=We Got To Get Together [7 Inch Verion]
EXTD=
EXTT0=
EXTT1=
EXTT2=
EXTT3=
EXTT4=
EXTT5=
EXTT6=
EXTT7=
EXTT8=
PLAYORDER=
